<svg width="280" height="280" viewBox="0 0 280 280" fill="none" xmlns="http://www.w3.org/2000/svg">
<g filter="url(#filter0_d_4025_5505)">
<path d="M130 39.7735C136.188 36.2008 143.812 36.2008 150 39.7735L221.799 81.2265C227.987 84.7992 231.799 91.4017 231.799 98.547V181.453C231.799 188.598 227.987 195.201 221.799 198.774L150 240.226C143.812 243.799 136.188 243.799 130 240.226L58.2013 198.774C52.0133 195.201 48.2013 188.598 48.2013 181.453V98.547C48.2013 91.4017 52.0133 84.7992 58.2013 81.2265L130 39.7735Z" fill="white"/>
</g>
<mask id="mask0_4025_5505" style="mask-type:alpha" maskUnits="userSpaceOnUse" x="48" y="37" width="184" height="206">
<path d="M130 39.7735C136.188 36.2008 143.812 36.2008 150 39.7735L221.799 81.2265C227.987 84.7992 231.799 91.4017 231.799 98.547V181.453C231.799 188.598 227.987 195.201 221.799 198.774L150 240.226C143.812 243.799 136.188 243.799 130 240.226L58.2013 198.774C52.0133 195.201 48.2013 188.598 48.2013 181.453V98.547C48.2013 91.4017 52.0133 84.7992 58.2013 81.2265L130 39.7735Z" fill="black"/>
</mask>
<g mask="url(#mask0_4025_5505)">
<mask id="mask1_4025_5505" style="mask-type:alpha" maskUnits="userSpaceOnUse" x="48" y="37" width="184" height="206">
<path d="M130 39.7735C136.188 36.2008 143.812 36.2008 150 39.7735L221.799 81.2265C227.987 84.7992 231.799 91.4017 231.799 98.547V181.453C231.799 188.598 227.987 195.201 221.799 198.774L150 240.226C143.812 243.799 136.188 243.799 130 240.226L58.2013 198.774C52.0133 195.201 48.2013 188.598 48.2013 181.453V98.547C48.2013 91.4017 52.0133 84.7992 58.2013 81.2265L130 39.7735Z" fill="url(#paint0_linear_4025_5505)"/>
</mask>
<g mask="url(#mask1_4025_5505)">
<rect width="280" height="280" fill="#67C40C"/>
<rect width="280" height="280" fill="url(#paint1_linear_4025_5505)" fill-opacity="0.6" style="mix-blend-mode:overlay"/>
<rect width="280" height="280" fill="url(#paint2_radial_4025_5505)" fill-opacity="0.6" style="mix-blend-mode:overlay"/>
<rect width="280" height="280" fill="black" fill-opacity="0.16" style="mix-blend-mode:overlay"/>
<rect width="280" height="280" fill="black" fill-opacity="0.12" style="mix-blend-mode:darken"/>
</g>
<g filter="url(#filter1_d_4025_5505)">
<mask id="mask2_4025_5505" style="mask-type:alpha" maskUnits="userSpaceOnUse" x="48" y="37" width="184" height="206">
<path fill-rule="evenodd" clip-rule="evenodd" d="M211.799 84.6903L189.648 71.9014C189.77 72.1121 189.895 72.3297 190.025 72.5545L223.422 130.4L223.425 130.405C223.553 130.628 223.678 130.844 223.799 131.053V105.475C223.799 98.2047 223.706 96.36 223.211 94.8385C222.692 93.2392 221.842 91.7669 220.717 90.5172C219.646 89.3283 218.095 88.3255 211.799 84.6903ZM152 50.1655L174.151 62.9546C173.908 62.9545 173.657 62.9545 173.397 62.9545L106.603 62.9545C106.344 62.9545 106.092 62.9545 105.849 62.9547L128 50.1655C134.296 46.5304 135.94 45.6886 137.505 45.356C139.15 45.0063 140.85 45.0063 142.495 45.356C144.06 45.6886 145.704 46.5304 152 50.1655ZM68.2014 84.6903L90.3531 71.9011C90.2312 72.1118 90.1055 72.3295 89.9757 72.5544L89.9757 72.5545L56.5787 130.4L56.5761 130.404C56.4471 130.628 56.3223 130.844 56.2014 131.054V105.475C56.2014 98.2047 56.2944 96.36 56.7887 94.8385C57.3084 93.2392 58.1584 91.7669 59.2837 90.5172C60.3542 89.3283 61.9052 88.3255 68.2014 84.6903ZM56.2014 174.525V148.946C56.3231 149.157 56.4488 149.375 56.5787 149.6L89.9757 207.445C90.1055 207.67 90.2313 207.888 90.3532 208.098L68.2014 195.309C61.9052 191.674 60.3542 190.671 59.2837 189.482C58.1584 188.233 57.3084 186.76 56.7887 185.161C56.2944 183.639 56.2014 181.795 56.2014 174.525ZM128 229.834L105.849 217.045C106.092 217.045 106.343 217.045 106.603 217.045H106.603H173.397C173.657 217.045 173.908 217.045 174.152 217.045L152 229.834C145.704 233.469 144.06 234.311 142.495 234.643C140.85 234.993 139.15 234.993 137.505 234.643C135.94 234.311 134.296 233.469 128 229.834ZM211.799 195.309L189.648 208.098C189.713 207.986 189.779 207.871 189.846 207.755L190.025 207.445L190.025 207.445L223.422 149.6L223.613 149.268C223.676 149.159 223.738 149.052 223.799 148.947V174.525C223.799 181.795 223.706 183.639 223.211 185.161C222.692 186.76 221.842 188.233 220.717 189.482C219.646 190.671 218.095 191.674 211.799 195.309ZM135.842 37.5308C132.743 38.1894 129.829 39.872 124 43.2373L64.2014 77.7621C58.3725 81.1274 55.4581 82.8101 53.3385 85.1641C51.4631 87.247 50.0464 89.7008 49.1803 92.3664C48.2014 95.3791 48.2014 98.7444 48.2014 105.475V174.525C48.2014 181.255 48.2014 184.62 49.1803 187.633C50.0464 190.299 51.4631 192.752 53.3385 194.835C55.4581 197.189 58.3725 198.872 64.2014 202.237L124 236.762L124 236.762L124.001 236.762L124.001 236.763C129.829 240.128 132.744 241.81 135.842 242.469C138.583 243.051 141.417 243.051 144.158 242.469C147.257 241.81 150.171 240.127 156 236.762L215.799 202.237C221.628 198.872 224.542 197.189 226.662 194.835C228.537 192.752 229.954 190.299 230.82 187.633C231.799 184.62 231.799 181.255 231.799 174.525V105.475C231.799 98.7444 231.799 95.3791 230.82 92.3664C229.954 89.7008 228.537 87.247 226.662 85.1641C224.542 82.8101 221.628 81.1274 215.799 77.7621L156 43.2373C150.171 39.872 147.257 38.1894 144.158 37.5308C141.417 36.9481 138.583 36.9481 135.842 37.5308ZM128.7 70.9545H106.603C102.025 70.9545 101.527 71.0475 101.21 71.1503C100.677 71.3235 100.186 71.6068 99.7699 71.9819C99.5226 72.2046 99.1929 72.5898 96.9039 76.5545L85.8557 95.6904L128.7 70.9545ZM151.301 70.9545L194.145 95.6905L183.097 76.5545C180.808 72.5898 180.478 72.2046 180.231 71.9819C179.814 71.6068 179.323 71.3235 178.79 71.1503C178.474 71.0474 177.975 70.9545 173.397 70.9545H151.301ZM74.5551 115.264L63.5069 134.4C61.2179 138.364 61.0491 138.843 60.98 139.168C60.8634 139.716 60.8634 140.283 60.98 140.831C61.0491 141.157 61.2179 141.635 63.5069 145.6L74.5551 164.736V115.264ZM85.8557 184.309L128.7 209.045H106.603C102.025 209.045 101.527 208.952 101.21 208.849C100.677 208.676 100.186 208.393 99.7699 208.018C99.5226 207.795 99.1929 207.41 96.9039 203.445L85.8557 184.309ZM151.301 209.045H173.397C177.975 209.045 178.474 208.952 178.79 208.849C179.323 208.676 179.814 208.393 180.231 208.018C180.478 207.795 180.808 207.41 183.097 203.445L194.145 184.309L151.301 209.045ZM216.494 134.4L205.445 115.264V164.736L216.494 145.6C218.783 141.635 218.951 141.157 219.021 140.831C219.137 140.283 219.137 139.716 219.021 139.168C218.951 138.843 218.783 138.364 216.494 134.4Z" fill="black"/>
</mask>
<g mask="url(#mask2_4025_5505)">
<rect y="-0.000244141" width="280" height="280" fill="#67C40C"/>
<rect y="-0.000244141" width="280" height="280" fill="url(#paint3_linear_4025_5505)" fill-opacity="0.6" style="mix-blend-mode:overlay"/>
<rect y="-0.000244141" width="280" height="280" fill="url(#paint4_radial_4025_5505)" fill-opacity="0.6" style="mix-blend-mode:overlay"/>
<g style="mix-blend-mode:soft-light">
<path fill-rule="evenodd" clip-rule="evenodd" d="M0 0H168L114.383 280H0V0Z" fill="url(#paint5_linear_4025_5505)" style="mix-blend-mode:lighten"/>
</g>
<g style="mix-blend-mode:soft-light">
<mask id="path-11-inside-1_4025_5505" fill="white">
<path fill-rule="evenodd" clip-rule="evenodd" d="M211.799 84.6903L189.648 71.9014C189.77 72.1121 189.895 72.3297 190.025 72.5545L223.422 130.4L223.425 130.405C223.553 130.628 223.678 130.844 223.799 131.053V105.475C223.799 98.2047 223.706 96.36 223.211 94.8385C222.692 93.2392 221.842 91.7669 220.717 90.5172C219.646 89.3283 218.095 88.3255 211.799 84.6903ZM152 50.1655L174.151 62.9546C173.908 62.9545 173.657 62.9545 173.397 62.9545L106.603 62.9545C106.344 62.9545 106.092 62.9545 105.849 62.9547L128 50.1655C134.296 46.5304 135.94 45.6886 137.505 45.356C139.15 45.0063 140.85 45.0063 142.495 45.356C144.06 45.6886 145.704 46.5304 152 50.1655ZM68.2014 84.6903L90.3531 71.9011C90.2312 72.1118 90.1055 72.3295 89.9757 72.5544L89.9757 72.5545L56.5787 130.4L56.5761 130.404C56.4471 130.628 56.3223 130.844 56.2014 131.054V105.475C56.2014 98.2047 56.2944 96.36 56.7887 94.8385C57.3084 93.2392 58.1584 91.7669 59.2837 90.5172C60.3542 89.3283 61.9052 88.3255 68.2014 84.6903ZM56.2014 174.525V148.946C56.3231 149.157 56.4488 149.375 56.5787 149.6L89.9757 207.445C90.1055 207.67 90.2313 207.888 90.3532 208.098L68.2014 195.309C61.9052 191.674 60.3542 190.671 59.2837 189.482C58.1584 188.233 57.3084 186.76 56.7887 185.161C56.2944 183.639 56.2014 181.795 56.2014 174.525ZM128 229.834L105.849 217.045C106.092 217.045 106.343 217.045 106.603 217.045H106.603H173.397C173.657 217.045 173.908 217.045 174.152 217.045L152 229.834C145.704 233.469 144.06 234.311 142.495 234.643C140.85 234.993 139.15 234.993 137.505 234.643C135.94 234.311 134.296 233.469 128 229.834ZM211.799 195.309L189.648 208.098C189.713 207.986 189.779 207.871 189.846 207.755L190.025 207.445L190.025 207.445L223.422 149.6L223.613 149.268C223.676 149.159 223.738 149.052 223.799 148.947V174.525C223.799 181.795 223.706 183.639 223.211 185.161C222.692 186.76 221.842 188.233 220.717 189.482C219.646 190.671 218.095 191.674 211.799 195.309ZM135.842 37.5308C132.743 38.1894 129.829 39.872 124 43.2373L64.2014 77.7621C58.3725 81.1274 55.4581 82.8101 53.3385 85.1641C51.4631 87.247 50.0464 89.7008 49.1803 92.3664C48.2014 95.3791 48.2014 98.7444 48.2014 105.475V174.525C48.2014 181.255 48.2014 184.62 49.1803 187.633C50.0464 190.299 51.4631 192.752 53.3385 194.835C55.4581 197.189 58.3725 198.872 64.2014 202.237L124 236.762L124 236.762L124.001 236.762L124.001 236.763C129.829 240.128 132.744 241.81 135.842 242.469C138.583 243.051 141.417 243.051 144.158 242.469C147.257 241.81 150.171 240.127 156 236.762L215.799 202.237C221.628 198.872 224.542 197.189 226.662 194.835C228.537 192.752 229.954 190.299 230.82 187.633C231.799 184.62 231.799 181.255 231.799 174.525V105.475C231.799 98.7444 231.799 95.3791 230.82 92.3664C229.954 89.7008 228.537 87.247 226.662 85.1641C224.542 82.8101 221.628 81.1274 215.799 77.7621L156 43.2373C150.171 39.872 147.257 38.1894 144.158 37.5308C141.417 36.9481 138.583 36.9481 135.842 37.5308ZM128.7 70.9545H106.603C102.025 70.9545 101.527 71.0475 101.21 71.1503C100.677 71.3235 100.186 71.6068 99.7699 71.9819C99.5226 72.2046 99.1929 72.5898 96.9039 76.5545L85.8557 95.6904L128.7 70.9545ZM151.301 70.9545L194.145 95.6905L183.097 76.5545C180.808 72.5898 180.478 72.2046 180.231 71.9819C179.814 71.6068 179.323 71.3235 178.79 71.1503C178.474 71.0474 177.975 70.9545 173.397 70.9545H151.301ZM74.5551 115.264L63.5069 134.4C61.2179 138.364 61.0491 138.843 60.98 139.168C60.8634 139.716 60.8634 140.283 60.98 140.831C61.0491 141.157 61.2179 141.635 63.5069 145.6L74.5551 164.736V115.264ZM85.8557 184.309L128.7 209.045H106.603C102.025 209.045 101.527 208.952 101.21 208.849C100.677 208.676 100.186 208.393 99.7699 208.018C99.5226 207.795 99.1929 207.41 96.9039 203.445L85.8557 184.309ZM151.301 209.045H173.397C177.975 209.045 178.474 208.952 178.79 208.849C179.323 208.676 179.814 208.393 180.231 208.018C180.478 207.795 180.808 207.41 183.097 203.445L194.145 184.309L151.301 209.045ZM216.494 134.4L205.445 115.264V164.736L216.494 145.6C218.783 141.635 218.951 141.157 219.021 140.831C219.137 140.283 219.137 139.716 219.021 139.168C218.951 138.843 218.783 138.364 216.494 134.4Z"/>
</mask>
<path d="M189.648 71.9014L189.898 71.4684C189.702 71.3552 189.454 71.3878 189.294 71.5479C189.134 71.7081 189.102 71.9557 189.215 72.1517L189.648 71.9014ZM211.799 84.6903L211.549 85.1234L211.549 85.1234L211.799 84.6903ZM190.025 72.5545L189.592 72.8045L189.592 72.8045L190.025 72.5545ZM223.422 130.4L222.989 130.65L222.989 130.65L223.422 130.4ZM223.425 130.405L223.858 130.155L223.857 130.154L223.425 130.405ZM223.799 131.053L223.366 131.303C223.479 131.499 223.709 131.594 223.928 131.536C224.147 131.477 224.299 131.279 224.299 131.053H223.799ZM223.211 94.8385L222.736 94.993L222.736 94.9931L223.211 94.8385ZM220.717 90.5172L221.088 90.1826L221.088 90.1826L220.717 90.5172ZM174.151 62.9546L174.151 63.4546C174.378 63.4548 174.576 63.3028 174.634 63.0842C174.693 62.8656 174.598 62.6348 174.401 62.5216L174.151 62.9546ZM152 50.1655L152.25 49.7325L152.25 49.7325L152 50.1655ZM173.397 62.9545L173.397 62.4545H173.397L173.397 62.9545ZM106.603 62.9545L106.603 63.4545H106.603L106.603 62.9545ZM105.849 62.9547L105.599 62.5216C105.403 62.6348 105.307 62.8656 105.366 63.0842C105.424 63.3028 105.623 63.4548 105.849 63.4547L105.849 62.9547ZM128 50.1655L127.75 49.7325L127.75 49.7325L128 50.1655ZM137.505 45.356L137.401 44.8669L137.401 44.8669L137.505 45.356ZM142.495 45.356L142.599 44.8669L142.599 44.8669L142.495 45.356ZM90.3531 71.9011L90.786 72.1513C90.8993 71.9554 90.8668 71.7077 90.7068 71.5476C90.5468 71.3875 90.2991 71.3549 90.1031 71.468L90.3531 71.9011ZM68.2014 84.6903L67.9514 84.2573L67.9514 84.2573L68.2014 84.6903ZM89.9757 72.5544L90.3757 72.8544C90.3877 72.8385 90.3987 72.8218 90.4087 72.8044L89.9757 72.5544ZM89.9757 72.5545L89.5757 72.2545C89.5637 72.2705 89.5526 72.2872 89.5426 72.3045L89.9757 72.5545ZM56.5787 130.4L57.0115 130.65L57.0117 130.65L56.5787 130.4ZM56.5761 130.404L56.1434 130.154L56.1431 130.154L56.5761 130.404ZM56.2014 131.054H55.7014C55.7014 131.28 55.8535 131.478 56.0722 131.537C56.2908 131.595 56.5215 131.499 56.6346 131.303L56.2014 131.054ZM56.7887 94.8385L57.2643 94.9931L57.2643 94.9931L56.7887 94.8385ZM59.2837 90.5172L58.9121 90.1826L58.9121 90.1826L59.2837 90.5172ZM56.2014 148.946L56.6346 148.696C56.5215 148.5 56.2908 148.404 56.0722 148.463C55.8535 148.521 55.7014 148.72 55.7014 148.946H56.2014ZM56.5787 149.6L57.0117 149.35L57.0117 149.35L56.5787 149.6ZM89.9757 207.445L90.4087 207.195L90.4087 207.195L89.9757 207.445ZM90.3532 208.098L90.1032 208.531C90.2992 208.645 90.5468 208.612 90.7068 208.452C90.8668 208.292 90.8993 208.044 90.786 207.848L90.3532 208.098ZM68.2014 195.309L68.4514 194.876L68.4514 194.876L68.2014 195.309ZM59.2837 189.482L58.9121 189.817L58.9121 189.817L59.2837 189.482ZM56.7887 185.161L57.2643 185.006L57.2643 185.006L56.7887 185.161ZM105.849 217.045L105.849 216.545C105.623 216.545 105.424 216.697 105.366 216.915C105.307 217.134 105.403 217.365 105.599 217.478L105.849 217.045ZM128 229.834L127.75 230.267L127.75 230.267L128 229.834ZM174.152 217.045L174.402 217.478C174.598 217.365 174.693 217.134 174.635 216.915C174.576 216.697 174.378 216.545 174.151 216.545L174.152 217.045ZM152 229.834L152.25 230.267L152.25 230.267L152 229.834ZM142.495 234.643L142.391 234.154L142.391 234.154L142.495 234.643ZM137.505 234.643L137.609 234.154L137.609 234.154L137.505 234.643ZM189.648 208.098L189.215 207.848C189.102 208.044 189.134 208.291 189.294 208.452C189.454 208.612 189.702 208.644 189.898 208.531L189.648 208.098ZM211.799 195.309L211.549 194.876L211.549 194.876L211.799 195.309ZM189.846 207.755L190.279 208.005L190.279 208.005L189.846 207.755ZM190.025 207.445L190.458 207.695C190.475 207.666 190.489 207.635 190.499 207.603L190.025 207.445ZM190.025 207.445L189.592 207.195C189.575 207.224 189.561 207.255 189.551 207.287L190.025 207.445ZM223.422 149.6L223.855 149.85L223.855 149.85L223.422 149.6ZM223.613 149.268L224.046 149.518L224.046 149.518L223.613 149.268ZM223.799 148.947H224.299C224.299 148.72 224.147 148.522 223.928 148.464C223.709 148.405 223.479 148.501 223.366 148.697L223.799 148.947ZM223.211 185.161L222.736 185.006L222.736 185.006L223.211 185.161ZM220.717 189.482L220.345 189.148L220.345 189.148L220.717 189.482ZM124 43.2373L124.25 43.6704L124.25 43.6704L124 43.2373ZM135.842 37.5308L135.738 37.0417L135.738 37.0417L135.842 37.5308ZM64.2014 77.7621L64.4514 78.1952L64.4514 78.1952L64.2014 77.7621ZM53.3385 85.1641L53.7101 85.4987L53.7101 85.4987L53.3385 85.1641ZM49.1803 92.3664L48.7048 92.2119L48.7048 92.2119L49.1803 92.3664ZM49.1803 187.633L49.6558 187.479L49.6558 187.479L49.1803 187.633ZM53.3385 194.835L52.9669 195.17L52.9669 195.17L53.3385 194.835ZM64.2014 202.237L64.4514 201.804L64.4514 201.804L64.2014 202.237ZM124 236.762L124.277 236.346C124.269 236.34 124.259 236.334 124.25 236.329L124 236.762ZM124 236.762L123.723 237.178C123.737 237.187 123.751 237.196 123.765 237.203L124 236.762ZM124.001 236.762L124.278 236.346C124.264 236.337 124.25 236.329 124.236 236.321L124.001 236.762ZM124.001 236.763L123.723 237.179C123.732 237.185 123.741 237.19 123.751 237.196L124.001 236.763ZM135.842 242.469L135.738 242.958L135.738 242.958L135.842 242.469ZM144.158 242.469L144.262 242.958L144.262 242.958L144.158 242.469ZM156 236.762L155.75 236.329L155.75 236.329L156 236.762ZM215.799 202.237L216.049 202.67L216.049 202.67L215.799 202.237ZM226.662 194.835L227.033 195.17L226.662 194.835ZM230.82 187.633L230.344 187.479L230.344 187.479L230.82 187.633ZM230.82 92.3664L231.295 92.2119L231.295 92.2119L230.82 92.3664ZM226.662 85.1641L226.29 85.4987L226.29 85.4987L226.662 85.1641ZM215.799 77.7621L215.549 78.1952L215.549 78.1952L215.799 77.7621ZM156 43.2373L155.75 43.6704L156 43.2373ZM144.158 37.5308L144.262 37.0417L144.262 37.0417L144.158 37.5308ZM128.7 70.9545L128.95 71.3875C129.146 71.2744 129.241 71.0437 129.183 70.8251C129.124 70.6065 128.926 70.4545 128.7 70.4545V70.9545ZM101.21 71.1503L101.365 71.6258L101.365 71.6258L101.21 71.1503ZM99.7699 71.9819L99.4353 71.6103L99.4353 71.6103L99.7699 71.9819ZM96.9039 76.5545L97.3369 76.8045L97.3369 76.8045L96.9039 76.5545ZM85.8557 95.6904L85.4227 95.4404C85.3096 95.6364 85.3422 95.884 85.5022 96.044C85.6622 96.204 85.9097 96.2366 86.1057 96.1234L85.8557 95.6904ZM151.301 70.9545V70.4545C151.075 70.4545 150.877 70.6065 150.818 70.8251C150.759 71.0437 150.855 71.2744 151.051 71.3875L151.301 70.9545ZM194.145 95.6905L193.895 96.1235C194.091 96.2366 194.338 96.204 194.498 96.044C194.658 95.884 194.691 95.6365 194.578 95.4405L194.145 95.6905ZM183.097 76.5545L183.53 76.3045L183.53 76.3045L183.097 76.5545ZM180.231 71.9819L180.565 71.6103L180.565 71.6103L180.231 71.9819ZM178.79 71.1503L178.636 71.6258L178.636 71.6258L178.79 71.1503ZM63.5069 134.4L63.0739 134.15L63.0739 134.15L63.5069 134.4ZM74.5551 115.264H75.0551C75.0551 115.037 74.9031 114.839 74.6845 114.781C74.4659 114.722 74.2352 114.818 74.1221 115.014L74.5551 115.264ZM60.98 139.168L61.469 139.272L61.469 139.272L60.98 139.168ZM60.98 140.831L61.469 140.727L61.469 140.727L60.98 140.831ZM63.5069 145.6L63.0739 145.85L63.0739 145.85L63.5069 145.6ZM74.5551 164.736L74.1221 164.986C74.2352 165.182 74.4659 165.277 74.6845 165.219C74.9031 165.16 75.0551 164.962 75.0551 164.736H74.5551ZM128.7 209.045V209.545C128.926 209.545 129.124 209.393 129.183 209.174C129.241 208.956 129.146 208.725 128.95 208.612L128.7 209.045ZM85.8557 184.309L86.1057 183.876C85.9097 183.763 85.6621 183.795 85.5021 183.955C85.3421 184.115 85.3095 184.363 85.4227 184.559L85.8557 184.309ZM101.21 208.849L101.056 209.325L101.056 209.325L101.21 208.849ZM99.7699 208.018L99.4353 208.389L99.4353 208.389L99.7699 208.018ZM96.9039 203.445L97.3369 203.195L97.3369 203.195L96.9039 203.445ZM151.301 209.045L151.051 208.612C150.855 208.725 150.759 208.956 150.818 209.174C150.876 209.393 151.075 209.545 151.301 209.545V209.045ZM178.79 208.849L178.945 209.325L178.945 209.325L178.79 208.849ZM180.231 208.018L180.565 208.389L180.565 208.389L180.231 208.018ZM183.097 203.445L182.664 203.195L182.664 203.195L183.097 203.445ZM194.145 184.309L194.578 184.559C194.691 184.363 194.659 184.115 194.498 183.955C194.338 183.795 194.091 183.763 193.895 183.876L194.145 184.309ZM205.445 115.264L205.879 115.014C205.765 114.818 205.535 114.722 205.316 114.781C205.097 114.839 204.945 115.037 204.945 115.264H205.445ZM216.494 134.4L216.927 134.15L216.927 134.15L216.494 134.4ZM205.445 164.736H204.945C204.945 164.962 205.097 165.16 205.316 165.219C205.535 165.277 205.765 165.182 205.879 164.986L205.445 164.736ZM216.494 145.6L216.927 145.85L216.927 145.85L216.494 145.6ZM219.021 140.831L218.532 140.727L218.532 140.727L219.021 140.831ZM219.021 139.168L218.532 139.272L218.532 139.272L219.021 139.168ZM189.398 72.3344L211.549 85.1234L212.049 84.2573L189.898 71.4684L189.398 72.3344ZM190.458 72.3045C190.328 72.0797 190.202 71.862 190.081 71.6511L189.215 72.1517C189.337 72.3622 189.462 72.5796 189.592 72.8045L190.458 72.3045ZM223.855 130.15L190.458 72.3045L189.592 72.8045L222.989 130.65L223.855 130.15ZM223.857 130.154L223.854 130.149L222.989 130.65L222.992 130.655L223.857 130.154ZM224.232 130.803C224.111 130.594 223.986 130.378 223.858 130.155L222.992 130.655C223.12 130.878 223.245 131.093 223.366 131.303L224.232 130.803ZM223.299 105.475V131.053H224.299V105.475H223.299ZM222.736 94.9931C223.2 96.4202 223.299 98.1656 223.299 105.475H224.299C224.299 98.2438 224.212 96.2999 223.687 94.684L222.736 94.9931ZM220.345 90.8517C221.423 92.0494 222.238 93.4603 222.736 94.993L223.687 94.684C223.146 93.018 222.26 91.4844 221.088 90.1826L220.345 90.8517ZM211.549 85.1234C217.879 88.778 219.341 89.7366 220.345 90.8517L221.088 90.1826C219.951 88.92 218.311 87.8729 212.049 84.2573L211.549 85.1234ZM174.401 62.5216L152.25 49.7325L151.75 50.5986L173.901 63.3877L174.401 62.5216ZM173.397 63.4545C173.657 63.4545 173.908 63.4545 174.151 63.4546L174.152 62.4546C173.908 62.4545 173.657 62.4545 173.397 62.4545V63.4545ZM106.603 63.4545L173.397 63.4545L173.397 62.4545L106.603 62.4545L106.603 63.4545ZM105.849 63.4547C106.092 63.4545 106.344 63.4545 106.603 63.4545V62.4545C106.344 62.4545 106.092 62.4545 105.848 62.4547L105.849 63.4547ZM127.75 49.7325L105.599 62.5216L106.099 63.3877L128.25 50.5986L127.75 49.7325ZM137.401 44.8669C135.739 45.2201 134.012 46.117 127.75 49.7325L128.25 50.5986C134.58 46.9439 136.141 46.157 137.609 45.8451L137.401 44.8669ZM142.599 44.8669C140.886 44.5027 139.115 44.5027 137.401 44.8669L137.609 45.8451C139.186 45.51 140.815 45.51 142.391 45.8451L142.599 44.8669ZM152.25 49.7325C145.988 46.117 144.261 45.2201 142.599 44.8669L142.391 45.8451C143.859 46.157 145.42 46.9439 151.75 50.5986L152.25 49.7325ZM90.1031 71.468L67.9514 84.2573L68.4514 85.1234L90.6031 72.3341L90.1031 71.468ZM90.4087 72.8044C90.5386 72.5795 90.6642 72.362 90.786 72.1513L89.9203 71.6508C89.7983 71.8617 89.6725 72.0796 89.5427 72.3044L90.4087 72.8044ZM90.3757 72.8545L90.3757 72.8544L89.5757 72.2544L89.5757 72.2545L90.3757 72.8545ZM57.0117 130.65L90.4087 72.8045L89.5426 72.3045L56.1457 130.15L57.0117 130.65ZM57.0089 130.655L57.0115 130.65L56.1459 130.149L56.1434 130.154L57.0089 130.655ZM56.6346 131.303C56.7553 131.094 56.8801 130.878 57.0092 130.654L56.1431 130.154C56.0141 130.378 55.8892 130.594 55.7682 130.804L56.6346 131.303ZM55.7014 105.475V131.054H56.7014V105.475H55.7014ZM56.3132 94.684C55.7882 96.2999 55.7014 98.2438 55.7014 105.475H56.7014C56.7014 98.1656 56.8006 96.4202 57.2643 94.9931L56.3132 94.684ZM58.9121 90.1826C57.74 91.4844 56.8545 93.018 56.3132 94.684L57.2643 94.9931C57.7623 93.4603 58.5769 92.0494 59.6553 90.8517L58.9121 90.1826ZM67.9514 84.2573C61.6891 87.8729 60.049 88.92 58.9121 90.1826L59.6553 90.8517C60.6594 89.7366 62.1213 88.778 68.4514 85.1234L67.9514 84.2573ZM55.7014 148.946V174.525H56.7014V148.946H55.7014ZM57.0117 149.35C56.8818 149.125 56.7562 148.907 56.6346 148.696L55.7682 149.196C55.89 149.407 56.0158 149.625 56.1457 149.85L57.0117 149.35ZM90.4087 207.195L57.0117 149.35L56.1457 149.85L89.5426 207.695L90.4087 207.195ZM90.786 207.848C90.6642 207.638 90.5386 207.42 90.4087 207.195L89.5426 207.695C89.6725 207.92 89.7983 208.138 89.9203 208.349L90.786 207.848ZM67.9514 195.742L90.1032 208.531L90.6032 207.665L68.4514 194.876L67.9514 195.742ZM58.9121 189.817C60.049 191.079 61.6891 192.127 67.9514 195.742L68.4514 194.876C62.1213 191.221 60.6594 190.263 59.6553 189.148L58.9121 189.817ZM56.3132 185.315C56.8545 186.981 57.74 188.515 58.9121 189.817L59.6553 189.148C58.5769 187.95 57.7623 186.539 57.2643 185.006L56.3132 185.315ZM55.7014 174.525C55.7014 181.756 55.7882 183.7 56.3132 185.315L57.2643 185.006C56.8006 183.579 56.7014 181.834 56.7014 174.525H55.7014ZM105.599 217.478L127.75 230.267L128.25 229.401L106.099 216.612L105.599 217.478ZM106.603 216.545C106.343 216.545 106.092 216.545 105.849 216.545L105.848 217.545C106.092 217.545 106.343 217.545 106.603 217.545V216.545ZM106.603 216.545H106.603V217.545H106.603V216.545ZM173.397 216.545H106.603V217.545H173.397V216.545ZM174.151 216.545C173.908 216.545 173.657 216.545 173.397 216.545V217.545C173.657 217.545 173.908 217.545 174.152 217.545L174.151 216.545ZM152.25 230.267L174.402 217.478L173.902 216.612L151.75 229.401L152.25 230.267ZM142.599 235.133C144.261 234.779 145.988 233.883 152.25 230.267L151.75 229.401C145.42 233.056 143.859 233.842 142.391 234.154L142.599 235.133ZM137.401 235.133C139.115 235.497 140.886 235.497 142.599 235.133L142.391 234.154C140.815 234.489 139.186 234.489 137.609 234.154L137.401 235.133ZM127.75 230.267C134.012 233.883 135.739 234.779 137.401 235.133L137.609 234.154C136.141 233.842 134.58 233.056 128.25 229.401L127.75 230.267ZM189.898 208.531L212.049 195.742L211.549 194.876L189.398 207.665L189.898 208.531ZM189.413 207.505C189.346 207.621 189.28 207.736 189.215 207.848L190.081 208.348C190.146 208.236 190.212 208.121 190.279 208.005L189.413 207.505ZM189.592 207.195L189.413 207.505L190.279 208.005L190.458 207.695L189.592 207.195ZM189.551 207.287L189.551 207.287L190.499 207.603L190.499 207.603L189.551 207.287ZM222.989 149.35L189.592 207.195L190.458 207.695L223.855 149.85L222.989 149.35ZM223.18 149.018L222.989 149.35L223.855 149.85L224.046 149.518L223.18 149.018ZM223.366 148.697C223.305 148.802 223.243 148.909 223.18 149.018L224.046 149.518C224.109 149.409 224.171 149.302 224.232 149.196L223.366 148.697ZM224.299 174.525V148.947H223.299V174.525H224.299ZM223.687 185.315C224.212 183.7 224.299 181.756 224.299 174.525H223.299C223.299 181.834 223.2 183.579 222.736 185.006L223.687 185.315ZM221.088 189.817C222.26 188.515 223.146 186.981 223.687 185.315L222.736 185.006C222.238 186.539 221.423 187.95 220.345 189.148L221.088 189.817ZM212.049 195.742C218.311 192.127 219.951 191.079 221.088 189.817L220.345 189.148C219.341 190.263 217.879 191.221 211.549 194.876L212.049 195.742ZM124.25 43.6704C130.108 40.2882 132.943 38.6581 135.946 38.0199L135.738 37.0417C132.544 37.7207 129.55 39.4559 123.75 42.8043L124.25 43.6704ZM64.4514 78.1952L124.25 43.6704L123.75 42.8043L63.9514 77.3291L64.4514 78.1952ZM53.7101 85.4987C55.7641 83.2175 58.5933 81.5773 64.4514 78.1952L63.9514 77.3291C58.1518 80.6776 55.1521 82.4027 52.9669 84.8296L53.7101 85.4987ZM49.6558 92.5209C50.5003 89.922 51.8816 87.5295 53.7101 85.4987L52.9669 84.8296C51.0446 86.9645 49.5925 89.4797 48.7048 92.2119L49.6558 92.5209ZM48.7014 105.475C48.7014 98.7106 48.7072 95.4404 49.6558 92.5209L48.7048 92.2119C47.6956 95.3177 47.7014 98.7781 47.7014 105.475H48.7014ZM48.7014 174.525V105.475H47.7014V174.525H48.7014ZM49.6558 187.479C48.7072 184.559 48.7014 181.289 48.7014 174.525H47.7014C47.7014 181.221 47.6956 184.682 48.7048 187.788L49.6558 187.479ZM53.7101 194.501C51.8816 192.47 50.5003 190.078 49.6558 187.479L48.7048 187.788C49.5925 190.52 51.0446 193.035 52.9669 195.17L53.7101 194.501ZM64.4514 201.804C58.5933 198.422 55.7641 196.782 53.7101 194.501L52.9669 195.17C55.1521 197.597 58.1518 199.322 63.9514 202.67L64.4514 201.804ZM124.25 236.329L64.4514 201.804L63.9514 202.67L123.75 237.195L124.25 236.329ZM124.278 236.346L124.277 236.346L123.723 237.178L123.723 237.178L124.278 236.346ZM124.236 236.321L124.236 236.321L123.765 237.203L123.765 237.204L124.236 236.321ZM124.278 236.347L124.278 236.346L123.723 237.178L123.723 237.179L124.278 236.347ZM135.946 241.98C132.943 241.341 130.108 239.711 124.251 236.33L123.751 237.196C129.55 240.544 132.544 242.279 135.738 242.958L135.946 241.98ZM144.054 241.98C141.381 242.548 138.619 242.548 135.946 241.98L135.738 242.958C138.548 243.555 141.452 243.555 144.262 242.958L144.054 241.98ZM155.75 236.329C149.892 239.711 147.057 241.341 144.054 241.98L144.262 242.958C147.457 242.279 150.45 240.544 156.25 237.195L155.75 236.329ZM215.549 201.804L155.75 236.329L156.25 237.195L216.049 202.67L215.549 201.804ZM226.29 194.501C224.236 196.782 221.407 198.422 215.549 201.804L216.049 202.67C221.848 199.322 224.848 197.597 227.033 195.17L226.29 194.501ZM230.344 187.479C229.5 190.078 228.119 192.47 226.29 194.501L227.033 195.17C228.956 193.035 230.408 190.52 231.295 187.788L230.344 187.479ZM231.299 174.525C231.299 181.289 231.293 184.559 230.344 187.479L231.295 187.788C232.305 184.682 232.299 181.221 232.299 174.525H231.299ZM231.299 105.475V174.525H232.299V105.475H231.299ZM230.344 92.5209C231.293 95.4404 231.299 98.7106 231.299 105.475H232.299C232.299 98.7781 232.305 95.3177 231.295 92.2119L230.344 92.5209ZM226.29 85.4987C228.119 87.5295 229.5 89.922 230.344 92.5209L231.295 92.2119C230.408 89.4797 228.956 86.9645 227.033 84.8296L226.29 85.4987ZM215.549 78.1952C221.407 81.5773 224.236 83.2175 226.29 85.4987L227.033 84.8296C224.848 82.4027 221.848 80.6776 216.049 77.3291L215.549 78.1952ZM155.75 43.6704L215.549 78.1952L216.049 77.3291L156.25 42.8043L155.75 43.6704ZM144.054 38.0199C147.057 38.6581 149.892 40.2882 155.75 43.6704L156.25 42.8043C150.45 39.4559 147.457 37.7207 144.262 37.0417L144.054 38.0199ZM135.946 38.0199C138.619 37.4517 141.381 37.4517 144.054 38.0199L144.262 37.0417C141.452 36.4444 138.548 36.4444 135.738 37.0417L135.946 38.0199ZM106.603 71.4545H128.7V70.4545H106.603V71.4545ZM101.365 71.6258C101.459 71.5952 101.61 71.5487 102.333 71.5132C103.056 71.4778 104.315 71.4545 106.603 71.4545V70.4545C104.314 70.4545 103.034 70.4777 102.284 70.5144C101.535 70.5512 101.278 70.6026 101.056 70.6747L101.365 71.6258ZM100.104 72.3535C100.469 72.0253 100.898 71.7774 101.365 71.6258L101.056 70.6747C100.456 70.8696 99.904 71.1884 99.4353 71.6103L100.104 72.3535ZM97.3369 76.8045C98.4811 74.8226 99.1305 73.7444 99.5228 73.1358C99.9151 72.5272 100.031 72.4198 100.104 72.3535L99.4353 71.6103C99.2618 71.7666 99.0889 71.9632 98.6823 72.594C98.2756 73.225 97.6156 74.3218 96.4708 76.3045L97.3369 76.8045ZM86.2887 95.9404L97.3369 76.8045L96.4708 76.3045L85.4227 95.4404L86.2887 95.9404ZM86.1057 96.1234L128.95 71.3875L128.45 70.5215L85.6057 95.2574L86.1057 96.1234ZM151.051 71.3875L193.895 96.1235L194.395 95.2575L151.551 70.5215L151.051 71.3875ZM182.664 76.8045L193.712 95.9405L194.578 95.4405L183.53 76.3045L182.664 76.8045ZM179.896 72.3535C179.97 72.4198 180.085 72.5272 180.478 73.1358C180.87 73.7444 181.519 74.8226 182.664 76.8045L183.53 76.3045C182.385 74.3218 181.725 73.225 181.318 72.594C180.912 71.9632 180.739 71.7666 180.565 71.6103L179.896 72.3535ZM178.636 71.6258C179.102 71.7774 179.532 72.0253 179.896 72.3535L180.565 71.6103C180.097 71.1884 179.545 70.8696 178.945 70.6747L178.636 71.6258ZM173.397 71.4545C175.686 71.4545 176.944 71.4778 177.667 71.5132C178.391 71.5487 178.541 71.5951 178.636 71.6258L178.945 70.6747C178.723 70.6026 178.466 70.5512 177.716 70.5144C176.967 70.4777 175.687 70.4545 173.397 70.4545V71.4545ZM151.301 71.4545H173.397V70.4545H151.301V71.4545ZM63.9399 134.65L74.9881 115.514L74.1221 115.014L63.0739 134.15L63.9399 134.65ZM61.469 139.272C61.4897 139.175 61.5248 139.021 61.8557 138.377C62.1866 137.733 62.7957 136.632 63.9399 134.65L63.0739 134.15C61.9292 136.132 61.3093 137.252 60.9663 137.92C60.6233 138.588 60.5394 138.836 60.4909 139.064L61.469 139.272ZM61.469 140.727C61.3671 140.248 61.3671 139.752 61.469 139.272L60.4909 139.064C60.3598 139.681 60.3598 140.318 60.4909 140.935L61.469 140.727ZM63.9399 145.35C62.7957 143.368 62.1866 142.266 61.8557 141.622C61.5248 140.978 61.4897 140.824 61.469 140.727L60.4909 140.935C60.5394 141.164 60.6233 141.412 60.9663 142.079C61.3093 142.747 61.9292 143.867 63.0739 145.85L63.9399 145.35ZM74.9881 164.486L63.9399 145.35L63.0739 145.85L74.1221 164.986L74.9881 164.486ZM75.0551 164.736V115.264H74.0551V164.736H75.0551ZM128.95 208.612L86.1057 183.876L85.6057 184.742L128.45 209.478L128.95 208.612ZM128.7 208.545H106.603V209.545H128.7V208.545ZM106.603 208.545C104.315 208.545 103.056 208.522 102.333 208.486C101.61 208.451 101.459 208.404 101.365 208.374L101.056 209.325C101.278 209.397 101.535 209.448 102.284 209.485C103.034 209.522 104.314 209.545 106.603 209.545V208.545ZM101.365 208.374C100.898 208.222 100.469 207.974 100.104 207.646L99.4353 208.389C99.904 208.811 100.456 209.13 101.056 209.325L101.365 208.374ZM100.104 207.646C100.031 207.58 99.9151 207.472 99.5228 206.864C99.1305 206.255 98.4811 205.177 97.3369 203.195L96.4708 203.695C97.6156 205.678 98.2756 206.774 98.6823 207.405C99.0889 208.036 99.2618 208.233 99.4353 208.389L100.104 207.646ZM97.3369 203.195L86.2887 184.059L85.4227 184.559L96.4708 203.695L97.3369 203.195ZM173.397 208.545H151.301V209.545H173.397V208.545ZM178.636 208.374C178.541 208.404 178.391 208.451 177.667 208.486C176.944 208.522 175.686 208.545 173.397 208.545V209.545C175.687 209.545 176.967 209.522 177.716 209.485C178.466 209.448 178.723 209.397 178.945 209.325L178.636 208.374ZM179.896 207.646C179.532 207.974 179.102 208.222 178.636 208.374L178.945 209.325C179.544 209.13 180.097 208.811 180.565 208.389L179.896 207.646ZM182.664 203.195C181.519 205.177 180.87 206.255 180.478 206.864C180.085 207.472 179.97 207.58 179.896 207.646L180.565 208.389C180.739 208.233 180.912 208.036 181.318 207.405C181.725 206.774 182.385 205.678 183.53 203.695L182.664 203.195ZM193.712 184.059L182.664 203.195L183.53 203.695L194.578 184.559L193.712 184.059ZM193.895 183.876L151.051 208.612L151.551 209.478L194.395 184.742L193.895 183.876ZM205.012 115.514L216.061 134.65L216.927 134.15L205.879 115.014L205.012 115.514ZM204.945 115.264V164.736H205.945V115.264H204.945ZM216.061 145.35L205.012 164.486L205.879 164.986L216.927 145.85L216.061 145.35ZM218.532 140.727C218.511 140.824 218.476 140.978 218.145 141.622C217.814 142.266 217.205 143.368 216.061 145.35L216.927 145.85C218.071 143.867 218.691 142.747 219.034 142.079C219.377 141.412 219.461 141.164 219.51 140.935L218.532 140.727ZM218.532 139.272C218.634 139.752 218.634 140.248 218.532 140.727L219.51 140.935C219.641 140.318 219.641 139.681 219.51 139.064L218.532 139.272ZM216.061 134.65C217.205 136.632 217.814 137.733 218.145 138.377C218.476 139.021 218.511 139.175 218.532 139.272L219.51 139.064C219.461 138.836 219.377 138.588 219.034 137.92C218.691 137.252 218.071 136.132 216.927 134.15L216.061 134.65Z" fill="url(#paint6_linear_4025_5505)" mask="url(#path-11-inside-1_4025_5505)"/>
</g>
</g>
</g>
<g filter="url(#filter2_d_4025_5505)">
<path d="M108.557 108.557L102.025 110.933C99.3249 111.915 99.3249 115.734 102.025 116.716L108.557 119.091L110.933 125.623C111.915 128.324 115.734 128.324 116.716 125.623L119.091 119.091L125.623 116.716C128.324 115.734 128.324 111.915 125.623 110.933L119.091 108.557L116.716 102.025C115.734 99.3249 111.915 99.3249 110.933 102.025L108.557 108.557Z" fill="white" shape-rendering="crispEdges"/>
<path d="M133.811 129.947L147.884 124.83L153.001 110.757C153.983 108.057 157.802 108.057 158.785 110.757L163.902 124.83L177.974 129.947C180.675 130.929 180.675 134.749 177.974 135.731L163.902 140.848L158.785 154.921C157.802 157.622 153.983 157.621 153.001 154.921L147.884 140.848L133.811 135.731C131.11 134.749 131.11 130.929 133.811 129.947Z" fill="white" shape-rendering="crispEdges"/>
<path d="M102.025 158.01L112.426 154.228L116.208 143.827C117.19 141.127 121.009 141.127 121.991 143.827L125.773 154.228L136.174 158.01C138.874 158.992 138.874 162.811 136.174 163.793L125.773 167.575L121.991 177.976C121.009 180.676 117.19 180.676 116.208 177.976L112.426 167.575L102.025 163.793C99.3249 162.811 99.3249 158.992 102.025 158.01Z" fill="white" shape-rendering="crispEdges"/>
<path d="M116.951 101.94L116.723 102.023L116.951 101.94C115.889 99.02 111.759 99.02 110.698 101.94L108.362 108.362L101.94 110.698C99.02 111.759 99.02 115.889 101.94 116.951L102.023 116.722L101.94 116.951L108.362 119.286L110.698 125.708C111.759 128.628 115.889 128.628 116.951 125.708L119.286 119.286L125.708 116.951C128.628 115.889 128.628 111.759 125.708 110.698L119.286 108.362L116.951 101.94ZM159.02 110.672L158.785 110.757L159.02 110.672C157.958 107.752 153.828 107.752 152.766 110.672L147.689 124.635L133.725 129.712C130.805 130.774 130.805 134.904 133.725 135.966L147.689 141.043L152.766 155.006C153.828 157.926 157.958 157.926 159.02 155.006L158.785 154.921L159.02 155.006L164.097 141.043L178.06 135.966C180.98 134.904 180.98 130.774 178.06 129.712L164.097 124.635L159.02 110.672ZM115.973 143.742L112.231 154.033L101.94 157.775C99.0201 158.837 99.02 162.967 101.94 164.028L112.231 167.77L115.973 178.061C117.035 180.981 121.164 180.981 122.226 178.061L125.968 167.77L136.259 164.028C139.179 162.967 139.179 158.837 136.259 157.775L125.968 154.033L122.226 143.742C121.164 140.822 117.035 140.822 115.973 143.742Z" stroke="url(#paint7_linear_4025_5505)" stroke-width="0.5" stroke-linecap="round" style="mix-blend-mode:color-burn" shape-rendering="crispEdges"/>
</g>
</g>
<defs>
<filter id="filter0_d_4025_5505" x="44.2013" y="37.094" width="191.597" height="213.812" filterUnits="userSpaceOnUse" color-interpolation-filters="sRGB">
<feFlood flood-opacity="0" result="BackgroundImageFix"/>
<feColorMatrix in="SourceAlpha" type="matrix" values="0 0 0 0 0 0 0 0 0 0 0 0 0 0 0 0 0 0 127 0" result="hardAlpha"/>
<feOffset dy="4"/>
<feGaussianBlur stdDeviation="2"/>
<feComposite in2="hardAlpha" operator="out"/>
<feColorMatrix type="matrix" values="0 0 0 0 0 0 0 0 0 0 0 0 0 0 0 0 0 0 0.25 0"/>
<feBlend mode="normal" in2="BackgroundImageFix" result="effect1_dropShadow_4025_5505"/>
<feBlend mode="normal" in="SourceGraphic" in2="effect1_dropShadow_4025_5505" result="shape"/>
</filter>
<filter id="filter1_d_4025_5505" x="40.2014" y="31.0938" width="199.597" height="221.812" filterUnits="userSpaceOnUse" color-interpolation-filters="sRGB">
<feFlood flood-opacity="0" result="BackgroundImageFix"/>
<feColorMatrix in="SourceAlpha" type="matrix" values="0 0 0 0 0 0 0 0 0 0 0 0 0 0 0 0 0 0 127 0" result="hardAlpha"/>
<feOffset dy="2"/>
<feGaussianBlur stdDeviation="4"/>
<feColorMatrix type="matrix" values="0 0 0 0 0 0 0 0 0 0 0 0 0 0 0 0 0 0 0.16 0"/>
<feBlend mode="color-burn" in2="BackgroundImageFix" result="effect1_dropShadow_4025_5505"/>
<feBlend mode="normal" in="SourceGraphic" in2="effect1_dropShadow_4025_5505" result="shape"/>
</filter>
<filter id="filter2_d_4025_5505" x="95.5" y="99.5" width="89.0001" height="89.001" filterUnits="userSpaceOnUse" color-interpolation-filters="sRGB">
<feFlood flood-opacity="0" result="BackgroundImageFix"/>
<feColorMatrix in="SourceAlpha" type="matrix" values="0 0 0 0 0 0 0 0 0 0 0 0 0 0 0 0 0 0 127 0" result="hardAlpha"/>
<feOffset dy="4"/>
<feGaussianBlur stdDeviation="2"/>
<feComposite in2="hardAlpha" operator="out"/>
<feColorMatrix type="matrix" values="0 0 0 0 0 0 0 0 0 0 0 0 0 0 0 0 0 0 0.25 0"/>
<feBlend mode="normal" in2="BackgroundImageFix" result="effect1_dropShadow_4025_5505"/>
<feBlend mode="normal" in="SourceGraphic" in2="effect1_dropShadow_4025_5505" result="shape"/>
</filter>
<linearGradient id="paint0_linear_4025_5505" x1="34" y1="34" x2="34" y2="246" gradientUnits="userSpaceOnUse">
<stop stop-color="#FFEDAF"/>
<stop offset="1" stop-color="#F2BE2F"/>
</linearGradient>
<linearGradient id="paint1_linear_4025_5505" x1="140" y1="31.7284" x2="140" y2="246.82" gradientUnits="userSpaceOnUse">
<stop stop-color="white"/>
<stop offset="1" stop-color="white" stop-opacity="0"/>
</linearGradient>
<radialGradient id="paint2_radial_4025_5505" cx="0" cy="0" r="1" gradientUnits="userSpaceOnUse" gradientTransform="translate(140 93.51) rotate(90) scale(141.869 107.639)">
<stop stop-color="white"/>
<stop offset="1" stop-color="white" stop-opacity="0"/>
</radialGradient>
<linearGradient id="paint3_linear_4025_5505" x1="140" y1="31.7282" x2="140" y2="246.82" gradientUnits="userSpaceOnUse">
<stop stop-color="white"/>
<stop offset="1" stop-color="white" stop-opacity="0"/>
</linearGradient>
<radialGradient id="paint4_radial_4025_5505" cx="0" cy="0" r="1" gradientUnits="userSpaceOnUse" gradientTransform="translate(140 93.5098) rotate(90) scale(141.869 107.639)">
<stop stop-color="white"/>
<stop offset="1" stop-color="white" stop-opacity="0"/>
</radialGradient>
<linearGradient id="paint5_linear_4025_5505" x1="0" y1="0" x2="0" y2="280" gradientUnits="userSpaceOnUse">
<stop offset="0.135095" stop-color="white"/>
<stop offset="0.877908" stop-color="white" stop-opacity="0.01"/>
</linearGradient>
<linearGradient id="paint6_linear_4025_5505" x1="140" y1="37.0937" x2="140" y2="242.906" gradientUnits="userSpaceOnUse">
<stop stop-color="white"/>
<stop offset="1" stop-color="#999999"/>
</linearGradient>
<linearGradient id="paint7_linear_4025_5505" x1="140" y1="100" x2="140" y2="180.001" gradientUnits="userSpaceOnUse">
<stop stop-color="#DFDFDF"/>
<stop offset="1" stop-color="#A9A9A9"/>
</linearGradient>
</defs>
</svg>
