<svg width="601" height="593" viewBox="0 0 601 593" fill="none" xmlns="http://www.w3.org/2000/svg">
<path d="M274.049 9.69021L214.089 61.9002H300.079V0.000207055C290.799 -0.0297929 281.509 3.20021 274.049 9.69021Z" fill="#FDF0BC"/>
<path d="M325.779 9.63021C318.399 3.24021 309.249 0.0302136 300.089 0.000213623V61.9002H386.079L325.779 9.63021Z" fill="url(#paint0_linear_202_193)"/>
<path d="M90.909 95.2902L78.539 173.83L144.409 118.56L104.619 71.1402C97.489 77.0802 92.449 85.5302 90.909 95.2902Z" fill="#FDF0BC"/>
<path d="M130.499 62.0002C120.739 61.8402 111.659 65.2702 104.629 71.1402L144.419 118.56L210.289 63.2902L130.499 62.0002Z" fill="url(#paint1_linear_202_193)"/>
<path d="M5.649 278.59L46.649 346.71L61.579 262.03L0.629003 251.27C-1.021 260.41 0.549003 270.12 5.649 278.59Z" fill="#FDF0BC"/>
<path d="M14.569 227.64C6.999 233.8 2.249 242.26 0.628998 251.27L61.589 262.02L76.519 177.34L14.569 227.64Z" fill="url(#paint2_linear_202_193)"/>
<path d="M58.149 473.81L133.349 499.63L90.359 425.16L36.749 456.11C41.359 464.17 48.799 470.6 58.149 473.81Z" fill="url(#paint3_linear_202_193)"/>
<path d="M32.239 429.05C30.389 438.63 32.189 448.17 36.739 456.12L90.349 425.17L47.359 350.7L32.239 429.05Z" fill="url(#paint4_linear_202_193)"/>
<path d="M223.849 589.61L298.049 561.06L217.249 531.65L196.079 589.82C204.789 593.02 214.629 593.16 223.849 589.61Z" fill="url(#paint5_linear_202_193)"/>
<path d="M175.229 571.97C179.969 580.5 187.479 586.65 196.079 589.81L217.249 531.64L136.449 502.23L175.229 571.97Z" fill="url(#paint6_linear_202_193)"/>
<path d="M425.229 571.81L463.719 502.24L382.919 531.65L404.089 589.82C412.809 586.67 420.439 580.46 425.229 571.81Z" fill="url(#paint7_linear_202_193)"/>
<path d="M376.639 589.55C385.759 593.04 395.459 592.92 404.079 589.81L382.909 531.64L302.109 561.05L376.639 589.55Z" fill="url(#paint8_linear_202_193)"/>
<path d="M568.039 428.73L552.809 350.7L509.819 425.17L563.429 456.12C568.089 448.09 569.939 438.43 568.039 428.73Z" fill="url(#paint9_linear_202_193)"/>
<path d="M542.229 473.55C551.449 470.36 558.809 464.03 563.419 456.11L509.809 425.16L466.819 499.63L542.229 473.55Z" fill="url(#paint10_linear_202_193)"/>
<path d="M585.469 227.32L523.639 177.34L538.569 262.02L599.529 251.27C597.959 242.13 593.159 233.54 585.469 227.32Z" fill="url(#paint11_linear_202_193)"/>
<path d="M594.509 278.25C599.529 269.88 601.099 260.3 599.529 251.27L538.569 262.02L553.499 346.7L594.509 278.25Z" fill="url(#paint12_linear_202_193)"/>
<path d="M469.369 61.8302L389.879 63.2802L455.749 118.55L495.539 71.1302C488.449 65.1502 479.259 61.6502 469.369 61.8302Z" fill="url(#paint13_linear_202_193)"/>
<path d="M509.029 95.0402C507.489 85.4002 502.539 77.0602 495.539 71.1502L455.749 118.57L521.619 173.84L509.029 95.0402Z" fill="url(#paint14_linear_202_193)"/>
<path d="M300.079 514.08C416.059 514.08 510.079 420.06 510.079 304.08C510.079 188.1 416.059 94.0802 300.079 94.0802C184.099 94.0802 90.079 188.1 90.079 304.08C90.079 420.06 184.099 514.08 300.079 514.08Z" fill="url(#paint15_radial_202_193)"/>
<path d="M300.079 75.3202C173.739 75.3202 71.319 177.73 71.319 304.07C71.319 430.41 173.739 532.83 300.079 532.83C426.419 532.83 528.839 430.41 528.839 304.07C528.839 177.73 426.419 75.3202 300.079 75.3202ZM300.079 514.05C184.109 514.05 90.099 420.04 90.099 304.07C90.099 188.1 184.109 94.0902 300.079 94.0902C416.049 94.0902 510.059 188.1 510.059 304.07C510.059 420.04 416.049 514.05 300.079 514.05Z" fill="url(#paint16_linear_202_193)"/>
<path d="M300.079 46.1302C157.619 46.1302 42.139 161.61 42.139 304.07C42.139 446.53 157.619 562.01 300.079 562.01C442.539 562.01 558.019 446.53 558.019 304.07C558.019 161.61 442.539 46.1302 300.079 46.1302ZM300.079 532.72C173.799 532.72 71.429 430.35 71.429 304.07C71.429 177.79 173.799 75.4302 300.079 75.4302C426.359 75.4302 528.729 177.8 528.729 304.08C528.729 430.36 426.359 532.72 300.079 532.72Z" fill="url(#paint17_linear_202_193)"/>
<path d="M242.179 409.31C238.679 409.31 235.429 408.19 232.559 406.19C232.189 405.94 231.939 405.69 231.689 405.44C231.439 405.32 231.309 405.07 231.189 404.94C230.689 404.56 230.439 404.19 230.069 403.82C229.819 403.57 229.689 403.32 229.449 403.07L229.329 402.95C229.079 402.7 228.949 402.45 228.829 402.2L228.579 401.82C228.079 401.07 227.709 400.32 227.329 399.57C227.209 399.2 227.079 398.82 226.949 398.45C226.829 398.07 226.699 397.58 226.579 397.2C226.449 396.7 226.329 396.08 226.199 395.45C226.199 395.2 226.079 394.83 226.079 394.58C226.079 394.08 225.959 393.58 225.959 393.08C225.959 392.21 226.079 391.33 226.209 390.33L235.829 334.37L195.229 294.77C194.479 294.02 193.729 293.15 193.109 292.27C192.359 291.15 191.859 290.27 191.489 289.27C191.369 288.9 191.119 288.4 190.989 287.77C190.609 286.27 190.369 284.77 190.369 283.15C190.369 282.65 190.369 282.28 190.369 281.78C190.369 281.03 190.489 280.28 190.739 279.53C190.739 279.41 190.859 279.16 190.859 279.03C190.989 278.65 190.989 278.28 191.109 277.91C191.109 277.79 191.229 277.53 191.359 277.16C191.479 276.78 191.609 276.41 191.859 276.04C192.229 275.29 192.609 274.54 193.229 273.67C193.479 273.17 193.849 272.8 194.229 272.42C194.229 272.42 194.229 272.3 194.349 272.3L196.349 269.05H198.099C198.349 268.92 198.469 268.8 198.719 268.67C198.969 268.55 199.469 268.3 199.839 268.05C200.339 267.8 200.959 267.55 201.709 267.3C201.959 267.18 202.329 267.05 202.709 267.05C203.209 266.93 203.709 266.8 204.329 266.67L260.539 258.55L285.269 207.96C288.019 202.34 293.639 198.84 299.879 198.84C304.379 198.84 308.749 200.71 311.869 203.96C312.369 204.58 312.869 205.08 313.239 205.71C313.739 206.46 314.239 207.21 314.609 207.96L339.719 258.67L395.799 266.79C402.049 267.66 407.169 272.04 409.039 278.03C409.169 278.41 409.289 278.65 409.289 279.03C409.289 279.15 409.289 279.15 409.409 279.28C409.529 279.66 409.659 280.03 409.659 280.53C409.659 280.65 409.659 280.65 409.659 280.78C409.779 281.28 409.779 281.65 409.779 282.15C409.909 284.52 409.529 287.02 408.529 289.27C408.149 290.27 407.659 291.14 407.029 292.02L406.899 292.14C406.279 293.01 405.529 293.89 404.779 294.64L364.179 334.24L373.799 390.07C374.799 396.19 372.429 402.31 367.299 406.06C366.049 406.93 364.549 407.81 363.049 408.31C362.919 408.31 362.799 408.44 362.549 408.44C360.929 408.94 359.299 409.19 357.679 409.19C355.059 409.19 352.429 408.57 350.059 407.32L299.849 380.96L249.639 407.32C247.419 408.69 244.799 409.31 242.179 409.31Z" fill="#DF771E"/>
<path d="M299.879 206.83V310.13L265.399 266.04L292.379 211.46C294.009 208.46 297.009 206.83 299.879 206.83Z" fill="#FFFAF6"/>
<path d="M401.429 280.66L299.999 310.14L334.469 266.05L394.679 274.79C398.059 275.41 400.429 277.78 401.429 280.66Z" fill="#FEE0AC"/>
<path d="M362.589 399.69L299.889 310.13L355.599 331.49L365.839 391.45C366.579 394.95 365.079 397.94 362.589 399.69Z" fill="#ECB76B"/>
<path d="M299.879 310.13V371.96L246.039 400.31C242.919 401.93 239.669 401.43 237.169 399.69L299.879 310.13Z" fill="#F1A341"/>
<path d="M334.359 266.04L299.879 310.13V206.83C302.129 206.83 304.379 207.7 305.999 209.45C306.249 209.7 306.499 210.07 306.749 210.45C306.999 210.83 307.249 211.2 307.369 211.57L334.359 266.04Z" fill="#FFE9BA"/>
<path d="M401.179 286.28C400.929 286.78 400.679 287.28 400.429 287.78C400.049 288.28 399.679 288.65 399.309 289.15L355.719 331.62L300.009 310.26L401.439 280.78C401.439 280.9 401.559 281.03 401.559 281.16C401.559 281.29 401.689 281.41 401.689 281.66C401.689 281.79 401.689 281.79 401.689 281.79C401.689 281.91 401.689 282.04 401.689 282.16C401.689 282.41 401.689 282.54 401.689 282.78C401.809 283.9 401.679 285.15 401.179 286.28Z" fill="#E49632"/>
<path d="M362.589 399.69C361.969 400.19 361.219 400.56 360.339 400.81C360.219 400.81 360.219 400.81 360.089 400.93C358.089 401.55 355.839 401.43 353.719 400.31L299.879 371.96V310.13L362.589 399.69Z" fill="#E29136"/>
<path d="M299.879 310.13L237.179 399.69C237.059 399.56 236.929 399.44 236.809 399.31C236.689 399.19 236.559 399.06 236.429 398.93C236.309 398.81 236.179 398.68 235.929 398.43C235.799 398.31 235.679 398.18 235.549 398.05C235.419 397.92 235.429 397.93 235.429 397.8C235.309 397.68 235.179 397.55 235.179 397.42C234.929 397.05 234.679 396.67 234.559 396.3C234.439 396.18 234.439 395.92 234.309 395.68C234.189 395.43 234.189 395.3 234.059 395.06C233.939 394.81 233.939 394.44 233.939 394.19C233.939 394.07 233.939 393.81 233.939 393.69C233.939 393.44 233.939 393.19 233.939 392.94C233.939 392.44 233.939 391.94 234.059 391.44L244.299 331.48L299.879 310.13Z" fill="#FED891"/>
<path d="M299.879 310.13L198.449 280.65C198.449 280.53 198.569 280.4 198.569 280.27C198.689 280.02 198.689 279.77 198.819 279.65C199.069 279.15 199.319 278.78 199.569 278.4C199.689 278.15 199.819 278.02 200.069 277.78C200.199 277.66 200.319 277.4 200.569 277.28C200.689 277.16 200.949 276.91 201.069 276.78C201.189 276.65 201.439 276.53 201.569 276.4C201.819 276.28 202.069 276.02 202.319 275.9C202.439 275.78 202.689 275.65 202.939 275.65C203.319 275.53 203.559 275.4 203.939 275.27C204.059 275.27 204.189 275.15 204.439 275.15C204.689 275.03 205.059 275.03 205.439 274.9L265.649 266.16L299.879 310.13Z" fill="#FFF3D9"/>
<path d="M299.879 310.13L244.299 331.61L200.709 289.14C200.209 288.76 199.959 288.27 199.589 287.77C199.339 287.27 198.969 286.77 198.839 286.27C198.719 286.02 198.589 285.77 198.589 285.52C198.339 284.77 198.209 283.9 198.209 283.15C198.209 282.9 198.209 282.65 198.209 282.4C198.209 282.03 198.209 281.78 198.339 281.4C198.339 281.28 198.459 281.15 198.459 280.9C198.459 280.78 198.579 280.65 198.579 280.53L299.879 310.13Z" fill="#ECB76B"/>
<defs>
<linearGradient id="paint0_linear_202_193" x1="304.293" y1="30.9502" x2="383.257" y2="30.9502" gradientUnits="userSpaceOnUse">
<stop stop-color="#FEE998"/>
<stop offset="1" stop-color="#FCC15B"/>
</linearGradient>
<linearGradient id="paint1_linear_202_193" x1="128.672" y1="91.3478" x2="207.479" y2="25.2161" gradientUnits="userSpaceOnUse">
<stop stop-color="#FEE998"/>
<stop offset="1" stop-color="#FCC15B"/>
</linearGradient>
<linearGradient id="paint2_linear_202_193" x1="77.9294" y1="177.163" x2="33.4588" y2="250.222" gradientUnits="userSpaceOnUse">
<stop stop-color="#FCC15B"/>
<stop offset="1" stop-color="#FEE998"/>
</linearGradient>
<linearGradient id="paint3_linear_202_193" x1="57.0238" y1="438.902" x2="134.318" y2="489.726" gradientUnits="userSpaceOnUse">
<stop stop-color="#FFC05F"/>
<stop offset="1" stop-color="#ED892B"/>
</linearGradient>
<linearGradient id="paint4_linear_202_193" x1="48.2405" y1="352.321" x2="62.0052" y2="439.145" gradientUnits="userSpaceOnUse">
<stop stop-color="#FCC15B"/>
<stop offset="1" stop-color="#FEE998"/>
</linearGradient>
<linearGradient id="paint5_linear_202_193" x1="210.534" y1="561.771" x2="286.769" y2="578.712" gradientUnits="userSpaceOnUse">
<stop stop-color="#FEAC3E"/>
<stop offset="1" stop-color="#F08223"/>
</linearGradient>
<linearGradient id="paint6_linear_202_193" x1="132.636" y1="501.567" x2="202.518" y2="558.743" gradientUnits="userSpaceOnUse">
<stop stop-color="#FFA135"/>
<stop offset="1" stop-color="#FEB431"/>
</linearGradient>
<linearGradient id="paint7_linear_202_193" x1="464.022" y1="501.743" x2="394.316" y2="561.743" gradientUnits="userSpaceOnUse">
<stop stop-color="#FFAA3D"/>
<stop offset="1" stop-color="#ED8B1C"/>
</linearGradient>
<linearGradient id="paint8_linear_202_193" x1="302.415" y1="566.619" x2="391.356" y2="561.678" gradientUnits="userSpaceOnUse">
<stop stop-color="#FF962D"/>
<stop offset="1" stop-color="#E56005"/>
</linearGradient>
<linearGradient id="paint9_linear_202_193" x1="556.077" y1="351.013" x2="538.195" y2="438.072" gradientUnits="userSpaceOnUse">
<stop stop-color="#FDBD41"/>
<stop offset="1" stop-color="#FEB334"/>
</linearGradient>
<linearGradient id="paint10_linear_202_193" x1="579.509" y1="366.34" x2="493.519" y2="515.273" gradientUnits="userSpaceOnUse">
<stop stop-color="#F6942F"/>
<stop offset="1" stop-color="#EA6F11"/>
</linearGradient>
<linearGradient id="paint11_linear_202_193" x1="519.323" y1="179.844" x2="571.087" y2="256.55" gradientUnits="userSpaceOnUse">
<stop stop-color="#FDBD41"/>
<stop offset="1" stop-color="#FEB334"/>
</linearGradient>
<linearGradient id="paint12_linear_202_193" x1="550.276" y1="346.484" x2="570.512" y2="257.072" gradientUnits="userSpaceOnUse">
<stop stop-color="#FD9D24"/>
<stop offset="1" stop-color="#FF9515"/>
</linearGradient>
<linearGradient id="paint13_linear_202_193" x1="474.647" y1="93.6744" x2="394.647" y2="55.0862" gradientUnits="userSpaceOnUse">
<stop stop-color="#FCC15B"/>
<stop offset="1" stop-color="#FEE998"/>
</linearGradient>
<linearGradient id="paint14_linear_202_193" x1="475.032" y1="88.7745" x2="513.149" y2="173.48" gradientUnits="userSpaceOnUse">
<stop stop-color="#FF9515"/>
<stop offset="1" stop-color="#FFBE41"/>
</linearGradient>
<radialGradient id="paint15_radial_202_193" cx="0" cy="0" r="1" gradientUnits="userSpaceOnUse" gradientTransform="translate(300.08 304.076) scale(210)">
<stop offset="0.8428" stop-color="#FAAA31"/>
<stop offset="1" stop-color="#F57E16"/>
</radialGradient>
<linearGradient id="paint16_linear_202_193" x1="300.081" y1="75.3163" x2="300.081" y2="532.836" gradientUnits="userSpaceOnUse">
<stop offset="0.0226" stop-color="#FD9A18"/>
<stop offset="0.3764" stop-color="#FEC752"/>
<stop offset="1" stop-color="#FFA422"/>
</linearGradient>
<linearGradient id="paint17_linear_202_193" x1="300.081" y1="45.3742" x2="300.081" y2="561.257" gradientUnits="userSpaceOnUse">
<stop stop-color="#FFDB69"/>
<stop offset="0.1799" stop-color="#FEE7B0"/>
<stop offset="0.24" stop-color="#FEE9BA"/>
<stop offset="0.2592" stop-color="#FDECD0"/>
<stop offset="0.2953" stop-color="#FEDA92"/>
<stop offset="0.3254" stop-color="#FFCD64"/>
<stop offset="0.3405" stop-color="#FFC853"/>
<stop offset="0.7613" stop-color="#FF9114"/>
<stop offset="1" stop-color="#F57E16"/>
</linearGradient>
</defs>
</svg>
